<svg xmlns="http://www.w3.org/2000/svg" xmlns:xlink="http://www.w3.org/1999/xlink" xmlns:lucid="lucid" width="1205" height="1160"><g transform="translate(-380 -60)" lucid:page-tab-id="k4VLTLLfxtcd"><path d="M1000 120c0 22.1-44.77 40-100 40s-100-17.9-100-40 44.77-40 100-40 100 17.9 100 40z" stroke="#3a414a" fill="#fff"/><use xlink:href="#a" transform="matrix(1,0,0,1,805,85) translate(17.35067901234569 39.65277777777778)"/><path d="M900 161v33.7" stroke="#3a414a" fill="none"/><path d="M900 160.5h.5v.5h-1v-.5z" stroke="#3a414a" stroke-width=".05" fill="#3a414a"/><path d="M900 209.45l-4.63-14.26h9.26z" stroke="#3a414a" fill="#3a414a"/><path d="M894.77 212.94a10.67 10.67 0 0 1 10.46 0l149.54 84.12a3.38 3.38 0 0 1 0 5.88l-149.54 84.12a10.67 10.67 0 0 1-10.46 0l-149.54-84.12a3.38 3.38 0 0 1 0-5.88z" stroke="#3a414a" fill="#fff"/><use xlink:href="#b" transform="matrix(1,0,0,1,745,214.9999999999999) translate(61.27043209876545 76.21527777777777)"/><use xlink:href="#c" transform="matrix(1,0,0,1,745,214.9999999999999) translate(54.85067901234569 102.88194444444446)"/><use xlink:href="#d" transform="matrix(1,0,0,1,745,214.9999999999999) translate(72.50500000000001 102.88194444444446)"/><use xlink:href="#e" transform="matrix(1,0,0,1,745,214.9999999999999) translate(126.825987654321 102.88194444444446)"/><use xlink:href="#f" transform="matrix(1,0,0,1,745,214.9999999999999) translate(158.92475308641974 102.88194444444446)"/><path d="M742.5 300H636.9" stroke="#3a414a" fill="none"/><path d="M743 300l.06.5h-.57v-1h.56z" stroke="#3a414a" stroke-width=".05" fill="#3a414a"/><path d="M622.12 300l14.26-4.63v9.26z" stroke="#3a414a" fill="#3a414a"/><use xlink:href="#g" transform="matrix(1,0,0,1,666.4445283644524,274.6666666666666) translate(0 14.222222222222223)"/><path d="M600 277.5c11.05 0 20 10.07 20 22.5s-8.95 22.5-20 22.5h-60c-11.05 0-20-10.07-20-22.5s8.95-22.5 20-22.5z" stroke="#3a414a" fill="#fff"/><use xlink:href="#h" transform="matrix(1,0,0,1,525,282.49999999999994) translate(21.60493827160494 22.15277777777778)"/><path d="M1100.5 404.93h-1v-55.1h1zm-5.48-105.35l1 .24.93.4.87.52.78.66.66.78.53.87.38.94.24.98.08 1v22.5h-1v-22.46l-.07-.88-.2-.84-.33-.8-.45-.73-.56-.66-.67-.55-.73-.45-.8-.33-.84-.2-.88-.07h-36.5v-1h36.54z" stroke="#3a414a" stroke-width=".05" fill="#3a414a"/><path d="M1057.5 300.5h-.56l.05-.5-.06-.5h.57z" fill="#3a414a"/><path d="M1057.53 300.52h-.62l.07-.52-.06-.52h.63zm-.56-1l.05.48-.05.48h.5v-.96z" stroke="#3a414a" stroke-width=".05" fill="#3a414a"/><path d="M1100 419.7l-4.63-14.27h9.27z" fill="#3a414a"/><path d="M1100 421.32l-5.32-16.4h10.64zm-3.95-15.4l3.95 12.16 3.95-12.15z" stroke="#3a414a" stroke-width=".05" fill="#3a414a"/><use xlink:href="#i" transform="matrix(1,0,0,1,1088.1975308641975,328.4880731071507) translate(0 14.222222222222223)"/><path d="M1095 423.33a9 9 0 0 1 10 0l110 73.34a4 4 0 0 1 0 6.66l-110 73.34a9 9 0 0 1-10 0l-110-73.34a4 4 0 0 1 0-6.66z" stroke="#3a414a" fill="#fff"/><use xlink:href="#j" transform="matrix(1,0,0,1,985,425.0000000000001) translate(74.88154320987655 59.96527777777778)"/><use xlink:href="#k" transform="matrix(1,0,0,1,985,425.0000000000001) translate(129.2025308641975 59.96527777777778)"/><use xlink:href="#l" transform="matrix(1,0,0,1,985,425.0000000000001) translate(26.332160493827185 86.63194444444446)"/><path d="M1253.1 500.5h-35.3v-1h35.3zm50.02 0h-19.42v-1h19.4z" stroke="#3a414a" stroke-width=".05" fill="#3a414a"/><path d="M1217.8 500.5h-.56l.05-.5-.06-.5h.56z" fill="#3a414a"/><path d="M1217.83 500.52h-.62l.07-.52-.06-.52h.63zm-.56-1l.05.48-.05.48h.5v-.96z" stroke="#3a414a" stroke-width=".05" fill="#3a414a"/><path d="M1317.88 500l-14.27 4.63.02-9.26z" fill="#3a414a"/><path d="M1319.5 500l-16.38 5.32v-10.64zm-15.38 3.95l12.14-3.95-12.14-3.95z" stroke="#3a414a" stroke-width=".05" fill="#3a414a"/><use xlink:href="#g" transform="matrix(1,0,0,1,1253.0870202428132,489.3333333333334) translate(0 14.222222222222223)"/><path d="M1320 466.67a6 6 0 0 1 6-6h208a6 6 0 0 1 6 6v66.66a6 6 0 0 1-6 6h-208a6 6 0 0 1-6-6z" stroke="#3a414a" fill="#fff"/><use xlink:href="#m" transform="matrix(1,0,0,1,1332,472.6666666666666) translate(33.5246913580247 21.21527777777778)"/><use xlink:href="#n" transform="matrix(1,0,0,1,1332,472.6666666666666) translate(137.16666666666669 21.21527777777778)"/><use xlink:href="#o" transform="matrix(1,0,0,1,1332,472.6666666666666) translate(156.30246913580248 21.21527777777778)"/><use xlink:href="#p" transform="matrix(1,0,0,1,1332,472.6666666666666) translate(13.15432098765433 47.88194444444444)"/><use xlink:href="#n" transform="matrix(1,0,0,1,1332,472.6666666666666) translate(67.47530864197532 47.88194444444444)"/><use xlink:href="#f" transform="matrix(1,0,0,1,1332,472.6666666666666) translate(86.61111111111111 47.88194444444444)"/><path d="M1430 540.33v52.8" stroke="#3a414a" fill="none"/><path d="M1430.5 540.35h-1v-.52h1z" stroke="#3a414a" stroke-width=".05" fill="#3a414a"/><path d="M1430 607.88l-4.63-14.26h9.27z" stroke="#3a414a" fill="#3a414a"/><path d="M1370 616a6 6 0 0 1 6-6h74.67c21.72 0 39.33 17.6 39.33 39.33 0 21.73-17.6 39.34-39.33 39.34H1376a6 6 0 0 1-6-6z" stroke="#3a414a" fill="#fff"/><use xlink:href="#q" transform="matrix(1,0,0,1,1375,615) translate(5.592592592592595 26.40277777777778)"/><use xlink:href="#r" transform="matrix(1,0,0,1,1375,615) translate(51.14814814814815 26.40277777777778)"/><use xlink:href="#s" transform="matrix(1,0,0,1,1375,615) translate(23.549382716049383 53.06944444444445)"/><path d="M1430 689.67v43.44" stroke="#3a414a" fill="none"/><path d="M1430.5 689.68h-1v-.5h1z" stroke="#3a414a" stroke-width=".05" fill="#3a414a"/><path d="M1430 747.88l-4.63-14.26h9.27z" stroke="#3a414a" fill="#3a414a"/><path d="M1295 756a6 6 0 0 1 6-6h258a6 6 0 0 1 6 6v48a6 6 0 0 1-6 6h-258a6 6 0 0 1-6-6z" stroke="#3a414a" fill="#fff"/><use xlink:href="#j" transform="matrix(1,0,0,1,1307.000175353577,762) translate(16.08641975308643 22.27777777777778)"/><use xlink:href="#n" transform="matrix(1,0,0,1,1307.000175353577,762) translate(70.40740740740742 22.27777777777778)"/><use xlink:href="#t" transform="matrix(1,0,0,1,1307.000175353577,762) translate(89.54320987654322 22.27777777777778)"/><path d="M1430 811v43.45" stroke="#3a414a" fill="none"/><path d="M1430.5 811h-1v-.5h1z" stroke="#3a414a" stroke-width=".05" fill="#3a414a"/><path d="M1430 869.2l-4.63-14.25h9.27z" stroke="#3a414a" fill="#3a414a"/><path d="M1457 871.33c9.94 0 18 8.96 18 20 0 11.05-8.06 20-18 20h-54c-9.94 0-18-8.95-18-20 0-11.04 8.06-20 18-20z" stroke="#3a414a" fill="#fff"/><use xlink:href="#h" transform="matrix(1,0,0,1,1390.0001753547394,876.3333333333335) translate(16.60493827160494 19.65277777777778)"/><path d="M919.8 500.5h-22.92v-1h22.92zm62.4 0h-38.8v-1h38.8z" stroke="#3a414a" stroke-width=".05" fill="#3a414a"/><path d="M982.7 500l.06.5h-.56v-1h.56z" fill="#3a414a"/><path d="M982.73 500l.06.52h-.63v-1.04h.62zm-.5-.48v.96h.5l-.05-.48.05-.48z" stroke="#3a414a" stroke-width=".05" fill="#3a414a"/><path d="M896.38 504.63L882.12 500l14.26-4.63z" fill="#3a414a"/><path d="M896.88 505.32L880.5 500l16.38-5.32zM883.74 500l12.14 3.95v-7.9z" stroke="#3a414a" stroke-width=".05" fill="#3a414a"/><use xlink:href="#i" transform="matrix(1,0,0,1,919.8018686460754,489.3333333333334) translate(0 14.222222222222223)"/><path d="M620 440.67a6 6 0 0 1 6-6h248a6 6 0 0 1 6 6v118.66a6 6 0 0 1-6 6H626a6 6 0 0 1-6-6z" stroke="#3a414a" fill="#fff"/><use xlink:href="#u" transform="matrix(1,0,0,1,632,446.6666666666668) translate(19.049382716049394 21.12152777777778)"/><use xlink:href="#n" transform="matrix(1,0,0,1,632,446.6666666666668) translate(100.34567901234568 21.12152777777778)"/><use xlink:href="#v" transform="matrix(1,0,0,1,632,446.6666666666668) translate(119.48148148148148 21.12152777777778)"/><use xlink:href="#w" transform="matrix(1,0,0,1,632,446.6666666666668) translate(53.5246913580247 47.78819444444444)"/><use xlink:href="#n" transform="matrix(1,0,0,1,632,446.6666666666668) translate(157.16666666666669 47.78819444444444)"/><use xlink:href="#o" transform="matrix(1,0,0,1,632,446.6666666666668) translate(176.30246913580248 47.78819444444444)"/><use xlink:href="#p" transform="matrix(1,0,0,1,632,446.6666666666668) translate(33.15432098765433 74.45486111111111)"/><use xlink:href="#n" transform="matrix(1,0,0,1,632,446.6666666666668) translate(87.47530864197532 74.45486111111111)"/><use xlink:href="#x" transform="matrix(1,0,0,1,632,446.6666666666668) translate(106.61111111111111 74.45486111111111)"/><use xlink:href="#y" transform="matrix(1,0,0,1,632,446.6666666666668) translate(33.46296296296296 101.12152777777777)"/><use xlink:href="#z" transform="matrix(1,0,0,1,632,446.6666666666668) translate(87.78395061728395 101.12152777777777)"/><use xlink:href="#A" transform="matrix(1,0,0,1,632,446.6666666666668) translate(112.4753086419753 101.12152777777777)"/><path d="M750 566.33v58.26" stroke="#3a414a" fill="none"/><path d="M750.5 566.35h-1v-.52h1z" stroke="#3a414a" stroke-width=".05" fill="#3a414a"/><path d="M750 639.35l-4.63-14.26h9.26z" stroke="#3a414a" fill="#3a414a"/><path d="M744.68 642.77a11.5 11.5 0 0 1 10.64 0l104.36 54.46a3.13 3.13 0 0 1 0 5.54l-104.36 54.46a11.5 11.5 0 0 1-10.64 0l-104.36-54.46a3.13 3.13 0 0 1 0-5.54z" stroke="#3a414a" fill="#fff"/><use xlink:href="#B" transform="matrix(1,0,0,1,640,645) translate(98.27660493827162 31.52777777777778)"/><use xlink:href="#C" transform="matrix(1,0,0,1,640,645) translate(27.44327160493827 58.19444444444445)"/><use xlink:href="#D" transform="matrix(1,0,0,1,640,645) translate(117.44327160493827 58.19444444444445)"/><use xlink:href="#E" transform="matrix(1,0,0,1,640,645) translate(180.22104938271605 58.19444444444445)"/><use xlink:href="#F" transform="matrix(1,0,0,1,640,645) translate(68.64697530864198 84.86111111111111)"/><path d="M637.63 700H536a6 6 0 0 0-6 6v37.12" stroke="#3a414a" fill="none"/><path d="M638.13 700l.06.5h-.58v-1h.57z" stroke="#3a414a" stroke-width=".05" fill="#3a414a"/><path d="M530 757.88l-4.63-14.26h9.26z" stroke="#3a414a" fill="#3a414a"/><use xlink:href="#g" transform="matrix(1,0,0,1,535.8913580246914,674.6666666666667) translate(0 14.222222222222223)"/><path d="M400 766a6 6 0 0 1 6-6h248a6 6 0 0 1 6 6v68a6 6 0 0 1-6 6H406a6 6 0 0 1-6-6z" stroke="#3a414a" fill="#fff"/><use xlink:href="#G" transform="matrix(1,0,0,1,412,772) translate(50.71604938271605 21.27777777777778)"/><use xlink:href="#H" transform="matrix(1,0,0,1,412,772) translate(108.74074074074073 21.27777777777778)"/><use xlink:href="#I" transform="matrix(1,0,0,1,412,772) translate(161.82716049382717 21.27777777777778)"/><use xlink:href="#p" transform="matrix(1,0,0,1,412,772) translate(11.086419753086432 47.94444444444444)"/><use xlink:href="#n" transform="matrix(1,0,0,1,412,772) translate(65.40740740740742 47.94444444444444)"/><use xlink:href="#t" transform="matrix(1,0,0,1,412,772) translate(84.54320987654322 47.94444444444444)"/><path d="M530 841v42.12" stroke="#3a414a" fill="none"/><path d="M530.5 841h-1v-.5h1z" stroke="#3a414a" stroke-width=".05" fill="#3a414a"/><path d="M530 897.88l-4.63-14.26h9.26z" stroke="#3a414a" fill="#3a414a"/><path d="M840 766a6 6 0 0 1 6-6h228a6 6 0 0 1 6 6v68a6 6 0 0 1-6 6H846a6 6 0 0 1-6-6z" stroke="#3a414a" fill="#fff"/><use xlink:href="#J" transform="matrix(1,0,0,1,852,772) translate(38.46296296296296 21.34027777777778)"/><use xlink:href="#K" transform="matrix(1,0,0,1,852,772) translate(86.48765432098766 21.34027777777778)"/><use xlink:href="#w" transform="matrix(1,0,0,1,852,772) translate(9.049382716049394 48.00694444444444)"/><use xlink:href="#n" transform="matrix(1,0,0,1,852,772) translate(112.69135802469137 48.00694444444444)"/><use xlink:href="#L" transform="matrix(1,0,0,1,852,772) translate(131.82716049382717 48.00694444444444)"/><path d="M862.37 700H954a6 6 0 0 1 6 6v37.12" stroke="#3a414a" fill="none"/><path d="M862.38 700.5h-.57l.07-.5-.06-.5h.58z" stroke="#3a414a" stroke-width=".05" fill="#3a414a"/><path d="M960 757.88l-4.63-14.26h9.26z" stroke="#3a414a" fill="#3a414a"/><g><use xlink:href="#i" transform="matrix(1,0,0,1,928.9975308641978,674.6666666666667) translate(0 14.222222222222223)"/></g><path d="M960 841v43.86" stroke="#3a414a" fill="none"/><path d="M960.5 841h-1v-.5h1z" stroke="#3a414a" stroke-width=".05" fill="#3a414a"/><path d="M960 899.63l-4.63-14.27h9.26z" stroke="#3a414a" fill="#3a414a"/><path d="M954.94 903.22a9.43 9.43 0 0 1 10.12 0l99.88 63.56a3.82 3.82 0 0 1 0 6.44l-99.88 63.56a9.43 9.43 0 0 1-10.12 0l-99.88-63.56a3.82 3.82 0 0 1 0-6.44z" stroke="#3a414a" fill="#fff"/><g><use xlink:href="#M" transform="matrix(1,0,0,1,855,905) translate(83.40006172839506 42.15277777777778)"/><use xlink:href="#C" transform="matrix(1,0,0,1,855,905) translate(22.44327160493827 68.81944444444446)"/><use xlink:href="#D" transform="matrix(1,0,0,1,855,905) translate(112.44327160493827 68.81944444444446)"/><use xlink:href="#E" transform="matrix(1,0,0,1,855,905) translate(175.22104938271605 68.81944444444446)"/><use xlink:href="#F" transform="matrix(1,0,0,1,855,905) translate(63.64697530864198 95.48611111111111)"/></g><path d="M1070 1046a6 6 0 0 1 6-6h253a6 6 0 0 1 6 6v28a6 6 0 0 1-6 6h-253a6 6 0 0 1-6-6z" stroke="#3a414a" fill="#fff"/><g><use xlink:href="#j" transform="matrix(1,0,0,1,1082,1052) translate(13.586419753086432 17.77777777777778)"/><use xlink:href="#n" transform="matrix(1,0,0,1,1082,1052) translate(67.90740740740742 17.77777777777778)"/><use xlink:href="#t" transform="matrix(1,0,0,1,1082,1052) translate(87.04320987654322 17.77777777777778)"/></g><path d="M1197.52 969.58l1 .24.93.4.87.52.78.66.66.78.53.87.38.94.24.98.08 1v47.14h-1v-47.1l-.07-.88-.2-.84-.33-.8-.45-.73-.56-.66-.67-.55-.73-.45-.8-.33-.84-.2-.88-.07h-11.57v-1h11.62zm-129.8.92v-1h86.58v1z" stroke="#3a414a" stroke-width=".05" fill="#3a414a"/><path d="M1067.72 970.5h-.56l.05-.5-.04-.5h.56z" fill="#3a414a"/><path d="M1067.75 970.52h-.62l.05-.52-.05-.52h.62zm-.56-1l.03.48-.04.48h.5v-.96z" stroke="#3a414a" stroke-width=".05" fill="#3a414a"/><path d="M1202.5 1037.88l-4.63-14.26h9.27z" fill="#3a414a"/><path d="M1202.5 1039.5l-5.32-16.38h10.64zm-3.95-15.38l3.95 12.14 3.95-12.14z" stroke="#3a414a" stroke-width=".05" fill="#3a414a"/><g><use xlink:href="#g" transform="matrix(1,0,0,1,1154.2957858777054,959.3333333333334) translate(0 14.222222222222223)"/></g><path d="M557 900c9.94 0 18 8.95 18 20s-8.06 20-18 20h-54c-9.94 0-18-8.95-18-20s8.06-20 18-20z" stroke="#3a414a" fill="#fff"/><g><use xlink:href="#h" transform="matrix(1,0,0,1,490.00005845235455,905) translate(16.60493827160494 19.65277777777778)"/></g><path d="M1229.5 1140c9.94 0 18 8.95 18 20s-8.06 20-18 20h-54c-9.94 0-18-8.95-18-20s8.06-20 18-20z" stroke="#3a414a" fill="#fff"/><g><use xlink:href="#h" transform="matrix(1,0,0,1,1162.5000584523546,1145) translate(16.60493827160494 19.65277777777778)"/></g><path d="M1202.5 1081v42.12" stroke="#3a414a" fill="none"/><path d="M1203 1081h-1v-.5h1z" stroke="#3a414a" stroke-width=".05" fill="#3a414a"/><path d="M1202.5 1137.88l-4.63-14.26h9.27z" stroke="#3a414a" fill="#3a414a"/><path d="M585 1046a6 6 0 0 1 6-6h268a6 6 0 0 1 6 6v53.33a6 6 0 0 1-6 6H591a6 6 0 0 1-6-6z" stroke="#3a414a" fill="#fff"/><g><use xlink:href="#j" transform="matrix(1,0,0,1,597,1052) translate(2.598765432098787 17.77777777777778)"/><use xlink:href="#n" transform="matrix(1,0,0,1,597,1052) translate(56.919753086419774 17.77777777777778)"/><use xlink:href="#N" transform="matrix(1,0,0,1,597,1052) translate(76.05555555555557 17.77777777777778)"/><use xlink:href="#w" transform="matrix(1,0,0,1,597,1052) translate(48.092592592592595 44.44444444444444)"/><use xlink:href="#n" transform="matrix(1,0,0,1,597,1052) translate(151.73456790123458 44.44444444444444)"/><use xlink:href="#O" transform="matrix(1,0,0,1,597,1052) translate(170.87037037037038 44.44444444444444)"/></g><path d="M742.34 970.5h-11.32l-.88.07-.84.2-.8.33-.73.45-.66.56-.55.67-.45.73-.33.8-.2.84-.07.88v47.1h-1v-47.14l.08-1 .24-1 .4-.93.52-.87.66-.78.78-.66.87-.53.94-.38.98-.24 1-.08h11.36zm109.95 0h-86.35v-1h86.34z" stroke="#3a414a" stroke-width=".05" fill="#3a414a"/><path d="M852.8 970l.04.5h-.56v-1h.56z" fill="#3a414a"/><path d="M852.82 970l.05.52h-.62v-1.04h.62zm-.52-.48v.96h.5l-.03-.48.04-.48z" stroke="#3a414a" stroke-width=".05" fill="#3a414a"/><path d="M725 1037.88l-4.63-14.26h9.26z" fill="#3a414a"/><path d="M725 1039.5l-5.32-16.38h10.64zm-3.95-15.38l3.95 12.14 3.95-12.14z" stroke="#3a414a" stroke-width=".05" fill="#3a414a"/><g><use xlink:href="#i" transform="matrix(1,0,0,1,742.3431030111839,959.3333333333334) translate(0 14.222222222222223)"/></g><path d="M752 1160c9.94 0 18 8.95 18 20s-8.06 20-18 20h-54c-9.94 0-18-8.95-18-20s8.06-20 18-20z" stroke="#3a414a" fill="#fff"/><g><use xlink:href="#h" transform="matrix(1,0,0,1,685,1165) translate(16.60493827160494 19.65277777777778)"/></g><path d="M725 1106.33v36.78" stroke="#3a414a" fill="none"/><path d="M725.5 1106.35h-1v-.52h1z" stroke="#3a414a" stroke-width=".05" fill="#3a414a"/><path d="M725 1157.88l-4.63-14.27 9.26.02z" stroke="#3a414a" fill="#3a414a"/><defs><path fill="#3a414a" d="M135-143c-3-34-86-38-87 0 15 53 115 12 119 90S17 21 10-45l28-5c4 36 97 45 98 0-10-56-113-15-118-90-4-57 82-63 122-42 12 7 21 19 24 35" id="P"/><path fill="#3a414a" d="M100-194c63 0 86 42 84 106H49c0 40 14 67 53 68 26 1 43-12 49-29l28 8c-11 28-37 45-77 45C44 4 14-33 15-96c1-61 26-98 85-98zm52 81c6-60-76-77-97-28-3 7-6 17-6 28h103" id="Q"/><path fill="#3a414a" d="M59-47c-2 24 18 29 38 22v24C64 9 27 4 27-40v-127H5v-23h24l9-43h21v43h35v23H59v120" id="R"/><path fill="#3a414a" d="M63-220v92h138v28H63V0H30v-248h175v28H63" id="S"/><path fill="#3a414a" d="M114-163C36-179 61-72 57 0H25l-1-190h30c1 12-1 29 2 39 6-27 23-49 58-41v29" id="T"/><path fill="#3a414a" d="M145-31C134-9 116 4 85 4 32 4 16-35 15-94c0-59 17-99 70-100 32-1 48 14 60 33 0-11-1-24 2-32h30l-1 268h-32zM93-21c41 0 51-33 51-76s-8-73-50-73c-40 0-46 35-46 75s5 74 45 74" id="U"/><path fill="#3a414a" d="M84 4C-5 8 30-112 23-190h32v120c0 31 7 50 39 49 72-2 45-101 50-169h31l1 190h-30c-1-10 1-25-2-33-11 22-28 36-60 37" id="V"/><path fill="#3a414a" d="M117-194c89-4 53 116 60 194h-32v-121c0-31-8-49-39-48C34-167 62-67 57 0H25l-1-190h30c1 10-1 24 2 32 11-22 29-35 61-36" id="W"/><path fill="#3a414a" d="M96-169c-40 0-48 33-48 73s9 75 48 75c24 0 41-14 43-38l32 2c-6 37-31 61-74 61-59 0-76-41-82-99-10-93 101-131 147-64 4 7 5 14 7 22l-32 3c-4-21-16-35-41-35" id="X"/><path fill="#3a414a" d="M179-190L93 31C79 59 56 82 12 73V49c39 6 53-20 64-50L1-190h34L92-34l54-156h33" id="Y"/><path fill="#3a414a" d="M87 75C49 33 22-17 22-94c0-76 28-126 65-167h31c-38 41-64 92-64 168S80 34 118 75H87" id="Z"/><path fill="#3a414a" d="M101-234c-31-9-42 10-38 44h38v23H63V0H32v-167H5v-23h27c-7-52 17-82 69-68v24" id="aa"/><path fill="#3a414a" d="M33-261c38 41 65 92 65 168S71 34 33 75H2C39 34 66-17 66-93S39-220 2-261h31" id="ab"/><g id="a"><use transform="matrix(0.06172839506172839,0,0,0.06172839506172839,0,0)" xlink:href="#P"/><use transform="matrix(0.06172839506172839,0,0,0.06172839506172839,11.11111111111111,0)" xlink:href="#Q"/><use transform="matrix(0.06172839506172839,0,0,0.06172839506172839,23.45679012345679,0)" xlink:href="#R"/><use transform="matrix(0.06172839506172839,0,0,0.06172839506172839,29.62962962962963,0)" xlink:href="#S"/><use transform="matrix(0.06172839506172839,0,0,0.06172839506172839,43.148148148148145,0)" xlink:href="#T"/><use transform="matrix(0.06172839506172839,0,0,0.06172839506172839,50.49382716049382,0)" xlink:href="#Q"/><use transform="matrix(0.06172839506172839,0,0,0.06172839506172839,62.8395061728395,0)" xlink:href="#U"/><use transform="matrix(0.06172839506172839,0,0,0.06172839506172839,75.18518518518518,0)" xlink:href="#V"/><use transform="matrix(0.06172839506172839,0,0,0.06172839506172839,87.53086419753086,0)" xlink:href="#Q"/><use transform="matrix(0.06172839506172839,0,0,0.06172839506172839,99.87654320987654,0)" xlink:href="#W"/><use transform="matrix(0.06172839506172839,0,0,0.06172839506172839,112.22222222222223,0)" xlink:href="#X"/><use transform="matrix(0.06172839506172839,0,0,0.06172839506172839,123.33333333333334,0)" xlink:href="#Y"/><use transform="matrix(0.06172839506172839,0,0,0.06172839506172839,134.44444444444446,0)" xlink:href="#Z"/><use transform="matrix(0.06172839506172839,0,0,0.06172839506172839,141.79012345679013,0)" xlink:href="#aa"/><use transform="matrix(0.06172839506172839,0,0,0.06172839506172839,147.96296296296296,0)" xlink:href="#ab"/></g><path fill="#3a414a" d="M63-70H37l-4-178h34zM33 0v-35h34V0H33" id="ac"/><path fill="#3a414a" d="M141-36C126-15 110 5 73 4 37 3 15-17 15-53c-1-64 63-63 125-63 3-35-9-54-41-54-24 1-41 7-42 31l-33-3c5-37 33-52 76-52 45 0 72 20 72 64v82c-1 20 7 32 28 27v20c-31 9-61-2-59-35zM48-53c0 20 12 33 32 33 41-3 63-29 60-74-43 2-92-5-92 41" id="ad"/><path fill="#3a414a" d="M85-194c31 0 48 13 60 33l-1-100h32l1 261h-30c-2-10 0-23-3-31C134-8 116 4 85 4 32 4 16-35 15-94c0-66 23-100 70-100zm9 24c-40 0-46 34-46 75 0 40 6 74 45 74 42 0 51-32 51-76 0-42-9-74-50-73" id="ae"/><path fill="#3a414a" d="M24-231v-30h32v30H24zM24 0v-190h32V0H24" id="af"/><path fill="#3a414a" d="M100-194c62-1 85 37 85 99 1 63-27 99-86 99S16-35 15-95c0-66 28-99 85-99zM99-20c44 1 53-31 53-75 0-43-8-75-51-75s-53 32-53 75 10 74 51 75" id="ag"/><path fill="#3a414a" d="M212-179c-10-28-35-45-73-45-59 0-87 40-87 99 0 60 29 101 89 101 43 0 62-24 78-52l27 14C228-24 195 4 139 4 59 4 22-46 18-125c-6-104 99-153 187-111 19 9 31 26 39 46" id="ah"/><g id="b"><use transform="matrix(0.06172839506172839,0,0,0.06172839506172839,0,0)" xlink:href="#ac"/><use transform="matrix(0.06172839506172839,0,0,0.06172839506172839,6.172839506172839,0)" xlink:href="#ad"/><use transform="matrix(0.06172839506172839,0,0,0.06172839506172839,18.51851851851852,0)" xlink:href="#T"/><use transform="matrix(0.06172839506172839,0,0,0.06172839506172839,25.864197530864196,0)" xlink:href="#ae"/><use transform="matrix(0.06172839506172839,0,0,0.06172839506172839,38.20987654320987,0)" xlink:href="#V"/><use transform="matrix(0.06172839506172839,0,0,0.06172839506172839,50.55555555555555,0)" xlink:href="#af"/><use transform="matrix(0.06172839506172839,0,0,0.06172839506172839,55.432098765432094,0)" xlink:href="#W"/><use transform="matrix(0.06172839506172839,0,0,0.06172839506172839,67.77777777777777,0)" xlink:href="#ag"/><use transform="matrix(0.06172839506172839,0,0,0.06172839506172839,80.12345679012346,0)" xlink:href="#ah"/><use transform="matrix(0.06172839506172839,0,0,0.06172839506172839,96.11111111111111,0)" xlink:href="#ag"/><use transform="matrix(0.06172839506172839,0,0,0.06172839506172839,108.4567901234568,0)" xlink:href="#W"/><use transform="matrix(0.06172839506172839,0,0,0.06172839506172839,120.80246913580248,0)" xlink:href="#W"/><use transform="matrix(0.06172839506172839,0,0,0.06172839506172839,133.14814814814815,0)" xlink:href="#Q"/><use transform="matrix(0.06172839506172839,0,0,0.06172839506172839,145.49382716049382,0)" xlink:href="#X"/><use transform="matrix(0.06172839506172839,0,0,0.06172839506172839,156.60493827160494,0)" xlink:href="#R"/><use transform="matrix(0.06172839506172839,0,0,0.06172839506172839,162.77777777777777,0)" xlink:href="#Q"/><use transform="matrix(0.06172839506172839,0,0,0.06172839506172839,175.12345679012344,0)" xlink:href="#ae"/></g><path fill="#3a414a" d="M32 76v-337h29V76H32" id="ai"/><g id="c"><use transform="matrix(0.06172839506172839,0,0,0.06172839506172839,0,0)" xlink:href="#ai"/><use transform="matrix(0.06172839506172839,0,0,0.06172839506172839,5.7407407407407405,0)" xlink:href="#ai"/></g><g id="d"><use transform="matrix(0.06172839506172839,0,0,0.06172839506172839,0,0)" xlink:href="#P"/><use transform="matrix(0.06172839506172839,0,0,0.06172839506172839,11.11111111111111,0)" xlink:href="#R"/><use transform="matrix(0.06172839506172839,0,0,0.06172839506172839,17.28395061728395,0)" xlink:href="#ad"/><use transform="matrix(0.06172839506172839,0,0,0.06172839506172839,29.629629629629626,0)" xlink:href="#R"/><use transform="matrix(0.06172839506172839,0,0,0.06172839506172839,35.80246913580247,0)" xlink:href="#Q"/></g><path fill="#3a414a" d="M18-150v-26h174v26H18zm0 90v-26h174v26H18" id="aj"/><g id="e"><use transform="matrix(0.06172839506172839,0,0,0.06172839506172839,0,0)" xlink:href="#aj"/><use transform="matrix(0.06172839506172839,0,0,0.06172839506172839,12.962962962962962,0)" xlink:href="#aj"/></g><path fill="#3a414a" d="M30-248c87 1 191-15 191 75 0 78-77 80-158 76V0H30v-248zm33 125c57 0 124 11 124-50 0-59-68-47-124-48v98" id="ak"/><path fill="#3a414a" d="M140-251c81 0 123 46 123 126C263-46 219 4 140 4 59 4 17-45 17-125s42-126 123-126zm0 227c63 0 89-41 89-101s-29-99-89-99c-61 0-89 39-89 99S79-25 140-24" id="al"/><path fill="#3a414a" d="M30 0v-248h33v221h125V0H30" id="am"/><path fill="#3a414a" d="M33 0v-248h34V0H33" id="an"/><path fill="#3a414a" d="M190 0L58-211 59 0H30v-248h39L202-35l-2-213h31V0h-41" id="ao"/><path fill="#3a414a" d="M143 4C61 4 22-44 18-125c-5-107 100-154 193-111 17 8 29 25 37 43l-32 9c-13-25-37-40-76-40-61 0-88 39-88 99 0 61 29 100 91 101 35 0 62-11 79-27v-45h-74v-28h105v86C228-13 192 4 143 4" id="ap"/><g id="f"><use transform="matrix(0.06172839506172839,0,0,0.06172839506172839,0,0)" xlink:href="#ak"/><use transform="matrix(0.06172839506172839,0,0,0.06172839506172839,14.814814814814813,0)" xlink:href="#al"/><use transform="matrix(0.06172839506172839,0,0,0.06172839506172839,32.09876543209876,0)" xlink:href="#am"/><use transform="matrix(0.06172839506172839,0,0,0.06172839506172839,44.444444444444436,0)" xlink:href="#am"/><use transform="matrix(0.06172839506172839,0,0,0.06172839506172839,56.79012345679011,0)" xlink:href="#an"/><use transform="matrix(0.06172839506172839,0,0,0.06172839506172839,62.962962962962955,0)" xlink:href="#ao"/><use transform="matrix(0.06172839506172839,0,0,0.06172839506172839,78.9506172839506,0)" xlink:href="#ap"/></g><path fill="#333" d="M146-102V0H94v-102L6-248h54l60 105 60-105h54" id="aq"/><path fill="#333" d="M185-48c-13 30-37 53-82 52C43 2 14-33 14-96s30-98 90-98c62 0 83 45 84 108H66c0 31 8 55 39 56 18 0 30-7 34-22zm-45-69c5-46-57-63-70-21-2 6-4 13-4 21h74" id="ar"/><path fill="#333" d="M137-138c1-29-70-34-71-4 15 46 118 7 119 86 1 83-164 76-172 9l43-7c4 19 20 25 44 25 33 8 57-30 24-41C81-84 22-81 20-136c-2-80 154-74 161-7" id="as"/><g id="g"><use transform="matrix(0.04938271604938272,0,0,0.04938271604938272,0,0)" xlink:href="#aq"/><use transform="matrix(0.04938271604938272,0,0,0.04938271604938272,10.864197530864198,0)" xlink:href="#ar"/><use transform="matrix(0.04938271604938272,0,0,0.04938271604938272,20.74074074074074,0)" xlink:href="#as"/></g><path fill="#3a414a" d="M30 0v-248h187v28H63v79h144v27H63v87h162V0H30" id="at"/><path fill="#3a414a" d="M30-248c118-7 216 8 213 122C240-48 200 0 122 0H30v-248zM63-27c89 8 146-16 146-99s-60-101-146-95v194" id="au"/><g id="h"><use transform="matrix(0.06172839506172839,0,0,0.06172839506172839,0,0)" xlink:href="#at"/><use transform="matrix(0.06172839506172839,0,0,0.06172839506172839,14.814814814814813,0)" xlink:href="#ao"/><use transform="matrix(0.06172839506172839,0,0,0.06172839506172839,30.80246913580247,0)" xlink:href="#au"/></g><path fill="#333" d="M175 0L67-191c6 58 2 128 3 191H24v-248h59L193-55c-6-58-2-129-3-193h46V0h-61" id="av"/><path fill="#333" d="M110-194c64 0 96 36 96 99 0 64-35 99-97 99-61 0-95-36-95-99 0-62 34-99 96-99zm-1 164c35 0 45-28 45-65 0-40-10-65-43-65-34 0-45 26-45 65 0 36 10 65 43 65" id="aw"/><g id="i"><use transform="matrix(0.04938271604938272,0,0,0.04938271604938272,0,0)" xlink:href="#av"/><use transform="matrix(0.04938271604938272,0,0,0.04938271604938272,12.790123456790125,0)" xlink:href="#aw"/></g><g id="j"><use transform="matrix(0.06172839506172839,0,0,0.06172839506172839,0,0)" xlink:href="#P"/><use transform="matrix(0.06172839506172839,0,0,0.06172839506172839,11.11111111111111,0)" xlink:href="#R"/><use transform="matrix(0.06172839506172839,0,0,0.06172839506172839,17.28395061728395,0)" xlink:href="#ad"/><use transform="matrix(0.06172839506172839,0,0,0.06172839506172839,29.629629629629626,0)" xlink:href="#R"/><use transform="matrix(0.06172839506172839,0,0,0.06172839506172839,35.80246913580247,0)" xlink:href="#Q"/></g><g id="k"><use transform="matrix(0.06172839506172839,0,0,0.06172839506172839,0,0)" xlink:href="#aj"/><use transform="matrix(0.06172839506172839,0,0,0.06172839506172839,12.962962962962962,0)" xlink:href="#aj"/></g><path fill="#3a414a" d="M185-189c-5-48-123-54-124 2 14 75 158 14 163 119 3 78-121 87-175 55-17-10-28-26-33-46l33-7c5 56 141 63 141-1 0-78-155-14-162-118-5-82 145-84 179-34 5 7 8 16 11 25" id="ax"/><path fill="#3a414a" d="M127-220V0H93v-220H8v-28h204v28h-85" id="ay"/><g id="l"><use transform="matrix(0.06172839506172839,0,0,0.06172839506172839,0,0)" xlink:href="#au"/><use transform="matrix(0.06172839506172839,0,0,0.06172839506172839,15.987654320987653,0)" xlink:href="#an"/><use transform="matrix(0.06172839506172839,0,0,0.06172839506172839,22.160493827160494,0)" xlink:href="#ax"/><use transform="matrix(0.06172839506172839,0,0,0.06172839506172839,36.9753086419753,0)" xlink:href="#ah"/><use transform="matrix(0.06172839506172839,0,0,0.06172839506172839,52.962962962962955,0)" xlink:href="#al"/><use transform="matrix(0.06172839506172839,0,0,0.06172839506172839,70.24691358024691,0)" xlink:href="#ao"/><use transform="matrix(0.06172839506172839,0,0,0.06172839506172839,86.23456790123457,0)" xlink:href="#ao"/><use transform="matrix(0.06172839506172839,0,0,0.06172839506172839,102.22222222222223,0)" xlink:href="#at"/><use transform="matrix(0.06172839506172839,0,0,0.06172839506172839,117.03703703703704,0)" xlink:href="#ah"/><use transform="matrix(0.06172839506172839,0,0,0.06172839506172839,133.02469135802468,0)" xlink:href="#ay"/><use transform="matrix(0.06172839506172839,0,0,0.06172839506172839,146.5432098765432,0)" xlink:href="#at"/><use transform="matrix(0.06172839506172839,0,0,0.06172839506172839,161.358024691358,0)" xlink:href="#au"/></g><g id="m"><use transform="matrix(0.06172839506172839,0,0,0.06172839506172839,0,0)" xlink:href="#aa"/><use transform="matrix(0.06172839506172839,0,0,0.06172839506172839,6.172839506172839,0)" xlink:href="#T"/><use transform="matrix(0.06172839506172839,0,0,0.06172839506172839,13.518518518518519,0)" xlink:href="#Q"/><use transform="matrix(0.06172839506172839,0,0,0.06172839506172839,25.864197530864196,0)" xlink:href="#U"/><use transform="matrix(0.06172839506172839,0,0,0.06172839506172839,38.20987654320987,0)" xlink:href="#V"/><use transform="matrix(0.06172839506172839,0,0,0.06172839506172839,50.55555555555555,0)" xlink:href="#Q"/><use transform="matrix(0.06172839506172839,0,0,0.06172839506172839,62.90123456790123,0)" xlink:href="#W"/><use transform="matrix(0.06172839506172839,0,0,0.06172839506172839,75.24691358024691,0)" xlink:href="#X"/><use transform="matrix(0.06172839506172839,0,0,0.06172839506172839,86.35802469135803,0)" xlink:href="#Y"/></g><use transform="matrix(0.06172839506172839,0,0,0.06172839506172839,0,0)" xlink:href="#aj" id="n"/><use transform="matrix(0.06172839506172839,0,0,0.06172839506172839,0,0)" xlink:href="#aa" id="o"/><g id="p"><use transform="matrix(0.06172839506172839,0,0,0.06172839506172839,0,0)" xlink:href="#P"/><use transform="matrix(0.06172839506172839,0,0,0.06172839506172839,11.11111111111111,0)" xlink:href="#R"/><use transform="matrix(0.06172839506172839,0,0,0.06172839506172839,17.28395061728395,0)" xlink:href="#ad"/><use transform="matrix(0.06172839506172839,0,0,0.06172839506172839,29.629629629629626,0)" xlink:href="#R"/><use transform="matrix(0.06172839506172839,0,0,0.06172839506172839,35.80246913580247,0)" xlink:href="#Q"/></g><path fill="#3a414a" d="M206 0h-36l-40-164L89 0H53L-1-190h32L70-26l43-164h34l41 164 42-164h31" id="az"/><g id="q"><use transform="matrix(0.06172839506172839,0,0,0.06172839506172839,0,0)" xlink:href="#az"/><use transform="matrix(0.06172839506172839,0,0,0.06172839506172839,15.987654320987653,0)" xlink:href="#ad"/><use transform="matrix(0.06172839506172839,0,0,0.06172839506172839,28.333333333333332,0)" xlink:href="#af"/><use transform="matrix(0.06172839506172839,0,0,0.06172839506172839,33.20987654320987,0)" xlink:href="#R"/></g><g id="r"><use transform="matrix(0.06172839506172839,0,0,0.06172839506172839,0,0)" xlink:href="#T"/><use transform="matrix(0.06172839506172839,0,0,0.06172839506172839,7.345679012345679,0)" xlink:href="#ad"/><use transform="matrix(0.06172839506172839,0,0,0.06172839506172839,19.691358024691358,0)" xlink:href="#ae"/><use transform="matrix(0.06172839506172839,0,0,0.06172839506172839,32.03703703703704,0)" xlink:href="#af"/><use transform="matrix(0.06172839506172839,0,0,0.06172839506172839,36.91358024691358,0)" xlink:href="#ag"/></g><path fill="#3a414a" d="M177-190C167-65 218 103 67 71c-23-6-38-20-44-43l32-5c15 47 100 32 89-28v-30C133-14 115 1 83 1 29 1 15-40 15-95c0-56 16-97 71-98 29-1 48 16 59 35 1-10 0-23 2-32h30zM94-22c36 0 50-32 50-73 0-42-14-75-50-75-39 0-46 34-46 75s6 73 46 73" id="aA"/><path fill="#3a414a" d="M24 0v-261h32V0H24" id="aB"/><g id="s"><use transform="matrix(0.06172839506172839,0,0,0.06172839506172839,0,0)" xlink:href="#P"/><use transform="matrix(0.06172839506172839,0,0,0.06172839506172839,11.11111111111111,0)" xlink:href="#af"/><use transform="matrix(0.06172839506172839,0,0,0.06172839506172839,15.987654320987653,0)" xlink:href="#aA"/><use transform="matrix(0.06172839506172839,0,0,0.06172839506172839,28.333333333333332,0)" xlink:href="#W"/><use transform="matrix(0.06172839506172839,0,0,0.06172839506172839,40.67901234567901,0)" xlink:href="#ad"/><use transform="matrix(0.06172839506172839,0,0,0.06172839506172839,53.02469135802469,0)" xlink:href="#aB"/></g><g id="t"><use transform="matrix(0.06172839506172839,0,0,0.06172839506172839,0,0)" xlink:href="#ah"/><use transform="matrix(0.06172839506172839,0,0,0.06172839506172839,15.987654320987653,0)" xlink:href="#al"/><use transform="matrix(0.06172839506172839,0,0,0.06172839506172839,33.2716049382716,0)" xlink:href="#ao"/><use transform="matrix(0.06172839506172839,0,0,0.06172839506172839,49.25925925925925,0)" xlink:href="#ao"/><use transform="matrix(0.06172839506172839,0,0,0.06172839506172839,65.24691358024691,0)" xlink:href="#at"/><use transform="matrix(0.06172839506172839,0,0,0.06172839506172839,80.06172839506172,0)" xlink:href="#ah"/><use transform="matrix(0.06172839506172839,0,0,0.06172839506172839,96.04938271604938,0)" xlink:href="#ay"/><use transform="matrix(0.06172839506172839,0,0,0.06172839506172839,109.5679012345679,0)" xlink:href="#at"/><use transform="matrix(0.06172839506172839,0,0,0.06172839506172839,124.38271604938271,0)" xlink:href="#au"/></g><g id="u"><use transform="matrix(0.06172839506172839,0,0,0.06172839506172839,0,0)" xlink:href="#ag"/><use transform="matrix(0.06172839506172839,0,0,0.06172839506172839,12.345679012345679,0)" xlink:href="#aB"/><use transform="matrix(0.06172839506172839,0,0,0.06172839506172839,17.22222222222222,0)" xlink:href="#ae"/><use transform="matrix(0.06172839506172839,0,0,0.06172839506172839,29.5679012345679,0)" xlink:href="#S"/><use transform="matrix(0.06172839506172839,0,0,0.06172839506172839,43.08641975308642,0)" xlink:href="#T"/><use transform="matrix(0.06172839506172839,0,0,0.06172839506172839,50.432098765432094,0)" xlink:href="#Q"/><use transform="matrix(0.06172839506172839,0,0,0.06172839506172839,62.77777777777777,0)" xlink:href="#U"/></g><g id="v"><use transform="matrix(0.06172839506172839,0,0,0.06172839506172839,0,0)" xlink:href="#aa"/><use transform="matrix(0.06172839506172839,0,0,0.06172839506172839,6.172839506172839,0)" xlink:href="#T"/><use transform="matrix(0.06172839506172839,0,0,0.06172839506172839,13.518518518518519,0)" xlink:href="#Q"/><use transform="matrix(0.06172839506172839,0,0,0.06172839506172839,25.864197530864196,0)" xlink:href="#U"/><use transform="matrix(0.06172839506172839,0,0,0.06172839506172839,38.20987654320987,0)" xlink:href="#V"/><use transform="matrix(0.06172839506172839,0,0,0.06172839506172839,50.55555555555555,0)" xlink:href="#Q"/><use transform="matrix(0.06172839506172839,0,0,0.06172839506172839,62.90123456790123,0)" xlink:href="#W"/><use transform="matrix(0.06172839506172839,0,0,0.06172839506172839,75.24691358024691,0)" xlink:href="#X"/><use transform="matrix(0.06172839506172839,0,0,0.06172839506172839,86.35802469135803,0)" xlink:href="#Y"/></g><g id="w"><use transform="matrix(0.06172839506172839,0,0,0.06172839506172839,0,0)" xlink:href="#aa"/><use transform="matrix(0.06172839506172839,0,0,0.06172839506172839,6.172839506172839,0)" xlink:href="#T"/><use transform="matrix(0.06172839506172839,0,0,0.06172839506172839,13.518518518518519,0)" xlink:href="#Q"/><use transform="matrix(0.06172839506172839,0,0,0.06172839506172839,25.864197530864196,0)" xlink:href="#U"/><use transform="matrix(0.06172839506172839,0,0,0.06172839506172839,38.20987654320987,0)" xlink:href="#V"/><use transform="matrix(0.06172839506172839,0,0,0.06172839506172839,50.55555555555555,0)" xlink:href="#Q"/><use transform="matrix(0.06172839506172839,0,0,0.06172839506172839,62.90123456790123,0)" xlink:href="#W"/><use transform="matrix(0.06172839506172839,0,0,0.06172839506172839,75.24691358024691,0)" xlink:href="#X"/><use transform="matrix(0.06172839506172839,0,0,0.06172839506172839,86.35802469135803,0)" xlink:href="#Y"/></g><g id="x"><use transform="matrix(0.06172839506172839,0,0,0.06172839506172839,0,0)" xlink:href="#ak"/><use transform="matrix(0.06172839506172839,0,0,0.06172839506172839,14.814814814814813,0)" xlink:href="#al"/><use transform="matrix(0.06172839506172839,0,0,0.06172839506172839,32.09876543209876,0)" xlink:href="#am"/><use transform="matrix(0.06172839506172839,0,0,0.06172839506172839,44.444444444444436,0)" xlink:href="#am"/><use transform="matrix(0.06172839506172839,0,0,0.06172839506172839,56.79012345679011,0)" xlink:href="#an"/><use transform="matrix(0.06172839506172839,0,0,0.06172839506172839,62.962962962962955,0)" xlink:href="#ao"/><use transform="matrix(0.06172839506172839,0,0,0.06172839506172839,78.9506172839506,0)" xlink:href="#ap"/></g><g id="y"><use transform="matrix(0.06172839506172839,0,0,0.06172839506172839,0,0)" xlink:href="#P"/><use transform="matrix(0.06172839506172839,0,0,0.06172839506172839,11.11111111111111,0)" xlink:href="#Q"/><use transform="matrix(0.06172839506172839,0,0,0.06172839506172839,23.45679012345679,0)" xlink:href="#W"/><use transform="matrix(0.06172839506172839,0,0,0.06172839506172839,35.80246913580247,0)" xlink:href="#ae"/></g><path fill="#3a414a" d="M26 75v-336h71v23H56V52h41v23H26" id="aC"/><path fill="#3a414a" d="M3 75V52h41v-290H3v-23h71V75H3" id="aD"/><g id="z"><use transform="matrix(0.06172839506172839,0,0,0.06172839506172839,0,0)" xlink:href="#aC"/><use transform="matrix(0.06172839506172839,0,0,0.06172839506172839,6.172839506172839,0)" xlink:href="#aa"/><use transform="matrix(0.06172839506172839,0,0,0.06172839506172839,12.345679012345679,0)" xlink:href="#aD"/></g><path fill="#3a414a" d="M210-169c-67 3-38 105-44 169h-31v-121c0-29-5-50-35-48C34-165 62-65 56 0H25l-1-190h30c1 10-1 24 2 32 10-44 99-50 107 0 11-21 27-35 58-36 85-2 47 119 55 194h-31v-121c0-29-5-49-35-48" id="aE"/><g id="A"><use transform="matrix(0.06172839506172839,0,0,0.06172839506172839,0,0)" xlink:href="#aE"/><use transform="matrix(0.06172839506172839,0,0,0.06172839506172839,18.456790123456788,0)" xlink:href="#Q"/><use transform="matrix(0.06172839506172839,0,0,0.06172839506172839,30.80246913580247,0)" xlink:href="#P"/><use transform="matrix(0.06172839506172839,0,0,0.06172839506172839,41.91358024691358,0)" xlink:href="#P"/><use transform="matrix(0.06172839506172839,0,0,0.06172839506172839,53.0246913580247,0)" xlink:href="#ad"/><use transform="matrix(0.06172839506172839,0,0,0.06172839506172839,65.37037037037038,0)" xlink:href="#aA"/><use transform="matrix(0.06172839506172839,0,0,0.06172839506172839,77.71604938271606,0)" xlink:href="#Q"/></g><g id="B"><use transform="matrix(0.06172839506172839,0,0,0.06172839506172839,0,0)" xlink:href="#aC"/><use transform="matrix(0.06172839506172839,0,0,0.06172839506172839,6.172839506172839,0)" xlink:href="#X"/><use transform="matrix(0.06172839506172839,0,0,0.06172839506172839,17.28395061728395,0)" xlink:href="#aD"/></g><path fill="#3a414a" d="M108 0H70L1-190h34L89-25l56-165h34" id="aF"/><g id="C"><use transform="matrix(0.06172839506172839,0,0,0.06172839506172839,0,0)" xlink:href="#T"/><use transform="matrix(0.06172839506172839,0,0,0.06172839506172839,7.345679012345679,0)" xlink:href="#Q"/><use transform="matrix(0.06172839506172839,0,0,0.06172839506172839,19.691358024691358,0)" xlink:href="#X"/><use transform="matrix(0.06172839506172839,0,0,0.06172839506172839,30.80246913580247,0)" xlink:href="#Q"/><use transform="matrix(0.06172839506172839,0,0,0.06172839506172839,43.148148148148145,0)" xlink:href="#af"/><use transform="matrix(0.06172839506172839,0,0,0.06172839506172839,48.02469135802469,0)" xlink:href="#aF"/><use transform="matrix(0.06172839506172839,0,0,0.06172839506172839,59.1358024691358,0)" xlink:href="#Q"/><use transform="matrix(0.06172839506172839,0,0,0.06172839506172839,71.48148148148148,0)" xlink:href="#ae"/></g><path fill="#3a414a" d="M106-169C34-169 62-67 57 0H25v-261h32l-1 103c12-21 28-36 61-36 89 0 53 116 60 194h-32v-121c2-32-8-49-39-48" id="aG"/><g id="D"><use transform="matrix(0.06172839506172839,0,0,0.06172839506172839,0,0)" xlink:href="#az"/><use transform="matrix(0.06172839506172839,0,0,0.06172839506172839,15.987654320987653,0)" xlink:href="#af"/><use transform="matrix(0.06172839506172839,0,0,0.06172839506172839,20.864197530864196,0)" xlink:href="#R"/><use transform="matrix(0.06172839506172839,0,0,0.06172839506172839,27.037037037037035,0)" xlink:href="#aG"/><use transform="matrix(0.06172839506172839,0,0,0.06172839506172839,39.382716049382715,0)" xlink:href="#af"/><use transform="matrix(0.06172839506172839,0,0,0.06172839506172839,44.25925925925926,0)" xlink:href="#W"/></g><path fill="#3a414a" d="M54-142c48-35 137-8 131 61C196 18 31 33 14-55l32-4c7 23 22 37 52 37 35-1 51-22 54-58 4-55-73-65-99-34H22l8-134h141v27H59" id="aH"/><use transform="matrix(0.06172839506172839,0,0,0.06172839506172839,0,0)" xlink:href="#aH" id="E"/><g id="F"><use transform="matrix(0.06172839506172839,0,0,0.06172839506172839,0,0)" xlink:href="#P"/><use transform="matrix(0.06172839506172839,0,0,0.06172839506172839,11.11111111111111,0)" xlink:href="#Q"/><use transform="matrix(0.06172839506172839,0,0,0.06172839506172839,23.45679012345679,0)" xlink:href="#X"/><use transform="matrix(0.06172839506172839,0,0,0.06172839506172839,34.5679012345679,0)" xlink:href="#ag"/><use transform="matrix(0.06172839506172839,0,0,0.06172839506172839,46.913580246913575,0)" xlink:href="#W"/><use transform="matrix(0.06172839506172839,0,0,0.06172839506172839,59.25925925925925,0)" xlink:href="#ae"/><use transform="matrix(0.06172839506172839,0,0,0.06172839506172839,71.60493827160494,0)" xlink:href="#P"/></g><g id="G"><use transform="matrix(0.06172839506172839,0,0,0.06172839506172839,0,0)" xlink:href="#ax"/><use transform="matrix(0.06172839506172839,0,0,0.06172839506172839,14.814814814814813,0)" xlink:href="#Q"/><use transform="matrix(0.06172839506172839,0,0,0.06172839506172839,27.160493827160494,0)" xlink:href="#W"/><use transform="matrix(0.06172839506172839,0,0,0.06172839506172839,39.50617283950617,0)" xlink:href="#ae"/></g><path fill="#3a414a" d="M115-194c53 0 69 39 70 98 0 66-23 100-70 100C84 3 66-7 56-30L54 0H23l1-261h32v101c10-23 28-34 59-34zm-8 174c40 0 45-34 45-75 0-40-5-75-45-74-42 0-51 32-51 76 0 43 10 73 51 73" id="aI"/><path fill="#3a414a" d="M143 0L79-87 56-68V0H24v-261h32v163l83-92h37l-77 82L181 0h-38" id="aJ"/><g id="H"><use transform="matrix(0.06172839506172839,0,0,0.06172839506172839,0,0)" xlink:href="#aI"/><use transform="matrix(0.06172839506172839,0,0,0.06172839506172839,12.345679012345679,0)" xlink:href="#ad"/><use transform="matrix(0.06172839506172839,0,0,0.06172839506172839,24.691358024691358,0)" xlink:href="#X"/><use transform="matrix(0.06172839506172839,0,0,0.06172839506172839,35.80246913580247,0)" xlink:href="#aJ"/></g><g id="I"><use transform="matrix(0.06172839506172839,0,0,0.06172839506172839,0,0)" xlink:href="#aC"/><use transform="matrix(0.06172839506172839,0,0,0.06172839506172839,6.172839506172839,0)" xlink:href="#X"/><use transform="matrix(0.06172839506172839,0,0,0.06172839506172839,17.28395061728395,0)" xlink:href="#aD"/></g><g id="J"><use transform="matrix(0.06172839506172839,0,0,0.06172839506172839,0,0)" xlink:href="#Q"/><use transform="matrix(0.06172839506172839,0,0,0.06172839506172839,12.345679012345679,0)" xlink:href="#aE"/><use transform="matrix(0.06172839506172839,0,0,0.06172839506172839,30.80246913580247,0)" xlink:href="#af"/><use transform="matrix(0.06172839506172839,0,0,0.06172839506172839,35.67901234567901,0)" xlink:href="#R"/></g><g id="K"><use transform="matrix(0.06172839506172839,0,0,0.06172839506172839,0,0)" xlink:href="#T"/><use transform="matrix(0.06172839506172839,0,0,0.06172839506172839,7.345679012345679,0)" xlink:href="#ag"/><use transform="matrix(0.06172839506172839,0,0,0.06172839506172839,19.691358024691358,0)" xlink:href="#aB"/><use transform="matrix(0.06172839506172839,0,0,0.06172839506172839,24.5679012345679,0)" xlink:href="#aB"/><use transform="matrix(0.06172839506172839,0,0,0.06172839506172839,29.444444444444443,0)" xlink:href="#aI"/><use transform="matrix(0.06172839506172839,0,0,0.06172839506172839,41.79012345679012,0)" xlink:href="#ad"/><use transform="matrix(0.06172839506172839,0,0,0.06172839506172839,54.1358024691358,0)" xlink:href="#X"/><use transform="matrix(0.06172839506172839,0,0,0.06172839506172839,65.24691358024691,0)" xlink:href="#aJ"/><use transform="matrix(0.06172839506172839,0,0,0.06172839506172839,76.35802469135803,0)" xlink:href="#Z"/><use transform="matrix(0.06172839506172839,0,0,0.06172839506172839,83.70370370370371,0)" xlink:href="#ab"/></g><g id="L"><use transform="matrix(0.06172839506172839,0,0,0.06172839506172839,0,0)" xlink:href="#ag"/><use transform="matrix(0.06172839506172839,0,0,0.06172839506172839,12.345679012345679,0)" xlink:href="#aB"/><use transform="matrix(0.06172839506172839,0,0,0.06172839506172839,17.22222222222222,0)" xlink:href="#ae"/><use transform="matrix(0.06172839506172839,0,0,0.06172839506172839,29.5679012345679,0)" xlink:href="#S"/><use transform="matrix(0.06172839506172839,0,0,0.06172839506172839,43.08641975308642,0)" xlink:href="#T"/><use transform="matrix(0.06172839506172839,0,0,0.06172839506172839,50.432098765432094,0)" xlink:href="#Q"/><use transform="matrix(0.06172839506172839,0,0,0.06172839506172839,62.77777777777777,0)" xlink:href="#U"/></g><g id="M"><use transform="matrix(0.06172839506172839,0,0,0.06172839506172839,0,0)" xlink:href="#ae"/><use transform="matrix(0.06172839506172839,0,0,0.06172839506172839,12.345679012345679,0)" xlink:href="#ad"/><use transform="matrix(0.06172839506172839,0,0,0.06172839506172839,24.691358024691358,0)" xlink:href="#R"/><use transform="matrix(0.06172839506172839,0,0,0.06172839506172839,30.864197530864196,0)" xlink:href="#ad"/></g><g id="N"><use transform="matrix(0.06172839506172839,0,0,0.06172839506172839,0,0)" xlink:href="#au"/><use transform="matrix(0.06172839506172839,0,0,0.06172839506172839,15.987654320987653,0)" xlink:href="#an"/><use transform="matrix(0.06172839506172839,0,0,0.06172839506172839,22.160493827160494,0)" xlink:href="#ax"/><use transform="matrix(0.06172839506172839,0,0,0.06172839506172839,36.9753086419753,0)" xlink:href="#ah"/><use transform="matrix(0.06172839506172839,0,0,0.06172839506172839,52.962962962962955,0)" xlink:href="#al"/><use transform="matrix(0.06172839506172839,0,0,0.06172839506172839,70.24691358024691,0)" xlink:href="#ao"/><use transform="matrix(0.06172839506172839,0,0,0.06172839506172839,86.23456790123457,0)" xlink:href="#ao"/><use transform="matrix(0.06172839506172839,0,0,0.06172839506172839,102.22222222222223,0)" xlink:href="#at"/><use transform="matrix(0.06172839506172839,0,0,0.06172839506172839,117.03703703703704,0)" xlink:href="#ah"/><use transform="matrix(0.06172839506172839,0,0,0.06172839506172839,133.02469135802468,0)" xlink:href="#ay"/><use transform="matrix(0.06172839506172839,0,0,0.06172839506172839,146.5432098765432,0)" xlink:href="#at"/><use transform="matrix(0.06172839506172839,0,0,0.06172839506172839,161.358024691358,0)" xlink:href="#au"/></g><path fill="#3a414a" d="M101-251c82-7 93 87 43 132L82-64C71-53 59-42 53-27h129V0H18c2-99 128-94 128-182 0-28-16-43-45-43s-46 15-49 41l-32-3c6-41 34-60 81-64" id="aK"/><g id="O"><use transform="matrix(0.06172839506172839,0,0,0.06172839506172839,0,0)" xlink:href="#aK"/><use transform="matrix(0.06172839506172839,0,0,0.06172839506172839,12.345679012345679,0)" xlink:href="#aH"/><use transform="matrix(0.06172839506172839,0,0,0.06172839506172839,24.691358024691358,0)" xlink:href="#aH"/></g></defs></g></svg>